<svg width="32" height="32" viewBox="0 0 32 32" fill="none" xmlns="http://www.w3.org/2000/svg">
<circle cx="16.5" cy="18.5" r="9.5" fill="black"/>
<circle cx="7.5" cy="9.5" r="5.5" fill="black"/>
<circle cx="25.5" cy="9.5" r="5.5" fill="black"/>
<circle cx="20" cy="16" r="1" fill="white"/>
<circle cx="13" cy="16" r="1" fill="white"/>
<path d="M17.366 22.5C16.9811 23.1667 16.0189 23.1667 15.634 22.5L15.201 21.75C14.8161 21.0833 15.2972 20.25 16.067 20.25L16.933 20.25C17.7028 20.25 18.1839 21.0833 17.799 21.75L17.366 22.5Z" fill="white"/>
<path d="M11 22L11.5 23.5L12 24.5L13 25L14.5 25.5L16.5 26L18.5 25.5L20 25L21 24.5L21.5 23.5L22 22" stroke="white"/>
</svg>
